<svg width="40" height="40" viewBox="0 0 40 40" fill="none" xmlns="http://www.w3.org/2000/svg">
  <path d="M20 8C13.373 8 8 13.373 8 20C8 26.627 13.373 32 20 32C26.627 32 32 26.627 32 20C32 13.373 26.627 8 20 8ZM20 30C14.486 30 10 25.514 10 20C10 14.486 14.486 10 20 10C25.514 10 30 14.486 30 20C30 25.514 25.514 30 20 30Z" fill="currentColor"/>
  <path d="M20 12C15.589 12 12 15.589 12 20C12 24.411 15.589 28 20 28C24.411 28 28 24.411 28 20C28 15.589 24.411 12 20 12ZM20 26C16.691 26 14 23.309 14 20C14 16.691 16.691 14 20 14C23.309 14 26 16.691 26 20C26 23.309 23.309 26 20 26Z" fill="currentColor"/>
</svg> 