<?xml version="1.0" encoding="utf-8"?>
<!-- Generator: Adobe Illustrator 28.1.0, SVG Export Plug-In . SVG Version: 6.00 Build 0)  -->
<svg version="1.1" id="Layer_1" xmlns="http://www.w3.org/2000/svg" xmlns:xlink="http://www.w3.org/1999/xlink" x="0px" y="0px"
	 viewBox="0 0 2049.12 386" style="enable-background:new 0 0 2049.12 386;" xml:space="preserve">
<style type="text/css">
	.st0{fill:#342A36;}
	.st1{fill:#FFFFFF;}
	.st2{fill:#FF76C1;}
	.st3{fill:none;}
	.st4{fill:#9C38AA;}
	.st5{fill:#FF4D43;}
	.st6{fill:#C5C4C5;}
	.st7{fill:#F88C38;}
	.st8{opacity:0.2;}
	.st9{stroke:#000000;stroke-width:18;stroke-miterlimit:10;}
	.st10{fill:none;stroke:#000000;stroke-width:18;stroke-miterlimit:10;}
	.st11{fill:none;stroke:#E2D70F;stroke-width:3;stroke-miterlimit:10;}
	.st12{fill:none;stroke:#6DA945;stroke-width:3;stroke-miterlimit:10;}
	.st13{fill:none;stroke:#41699D;stroke-width:3;stroke-miterlimit:10;}
	.st14{fill:none;stroke:#D92C69;stroke-width:3;stroke-miterlimit:10;}
</style>
<g>
	<g>
		<path class="st1" d="M843.5,207.07c-10.65-12.58-26.37-21.52-47.17-26.85l-51.89-12.7c-18.38-4.59-27.57-13.06-27.57-25.4
			c0-9.19,3.75-16.69,11.25-22.49c7.49-5.81,17.42-8.71,29.75-8.71c12.58,0,23.16,3.27,31.75,9.8c8.58,6.53,13.72,15.12,15.42,25.76
			h49.59c0,0,0.09-3.42-0.61-7.63c-0.7-4.21-1.45-6.89-1.45-6.89c-4.6-20.07-15.24-36.22-31.93-48.44
			c-16.69-12.21-36.53-18.32-59.51-18.32c-29.52,0-53.34,7.08-71.48,21.23s-27.21,32.72-27.21,55.69c0,18.63,5.44,34.29,16.33,46.99
			s26.61,21.47,47.17,26.3l52.25,11.98c17.66,3.87,26.49,12.58,26.49,26.12c0,9.2-3.94,16.63-11.79,22.32
			c-7.86,5.68-18.21,8.53-31.02,8.53c-16.45,0-29.82-3.93-40.1-11.79c-10.28-7.86-15.78-18.32-16.51-31.39h-49.22
			c0,0-0.28,1.39-0.28,3.18c0,1.89,0.1,4.52,0.15,4.44c1.93,24.43,12.34,44.08,31.2,58.96c18.87,14.88,42.69,22.32,71.48,22.32
			c30.24,0,54.61-7.01,73.11-21.05c18.5-14.03,27.76-32.53,27.76-55.51C859.47,235.13,854.14,219.65,843.5,207.07z"/>
		<path class="st1" d="M1057.39,234.65v16.69H927.13c2.42,11.61,7.56,20.56,15.42,26.85c7.86,6.3,17.96,9.44,30.3,9.44
			c9.67,0,18.08-1.99,25.21-5.99c7.13-3.99,12.16-9.49,15.06-16.51l39.19,16.33c-6.3,14.51-16.76,26.25-31.39,35.2
			c-14.64,8.95-30.66,13.42-48.07,13.42c-27.82,0-50.26-8.65-67.31-25.94c-17.05-17.29-25.58-40.1-25.58-68.39
			c0-28.3,8.22-51.1,24.67-68.4c16.45-17.29,38.22-25.94,65.31-25.94c26.13,0,47.23,8.59,63.32,25.76
			C1049.35,184.34,1057.39,206.83,1057.39,234.65z M968.5,183.85c-11.37,0-20.68,3.39-27.94,10.16
			c-7.26,6.77-11.86,16.21-13.79,28.3h83.45c-1.21-12.09-5.39-21.53-12.52-28.3C990.57,187.24,980.83,183.85,968.5,183.85z"/>
		<path class="st1" d="M1189.7,141.4c19.59,0,35.31,6.23,47.17,18.69c11.85,12.46,17.78,28.97,17.78,49.53v116.11h-49.71v-99.06
			c0-11.61-3.21-20.98-9.62-28.12c-6.41-7.13-14.7-10.7-24.86-10.7c-11.13,0-20.02,3.81-26.67,11.43
			c-6.65,7.62-9.98,17.48-9.98,29.57v96.88h-49.71V145.75h43.18l6.53,28.3h1.09c3.14-9.92,9.74-17.84,19.78-23.77
			C1164.72,144.36,1176.4,141.4,1189.7,141.4z"/>
		<path class="st1" d="M1416.2,58.67h49.71v267.05h-43.18l-6.53-27.94h-1.09c-2.9,9.68-9.25,17.48-19.05,23.41
			c-9.8,5.92-21.23,8.89-34.29,8.89c-24.68,0-44.51-8.65-59.51-25.94c-15-17.29-22.5-40.1-22.5-68.39c0-28.3,7.49-51.1,22.5-68.4
			c15-17.29,34.83-25.94,59.51-25.94c13.06,0,24.49,2.97,34.29,8.89c9.8,5.93,16.14,13.61,19.05,23.04h1.09V58.67z M1342.37,271.3
			c7.86,8.95,18.2,13.42,31.02,13.42c12.82,0,23.16-4.47,31.02-13.42c7.86-8.95,11.79-20.8,11.79-35.56
			c0-14.75-3.94-26.61-11.79-35.56c-7.86-8.95-18.2-13.42-31.02-13.42c-12.82,0-23.16,4.48-31.02,13.42
			c-7.86,8.95-11.79,20.81-11.79,35.56C1330.57,250.49,1334.5,262.35,1342.37,271.3z"/>
		<path class="st1" d="M1598.93,102.57c-7.5,0-13.24,1.69-17.23,5.08c-3.99,3.39-5.99,8.23-5.99,14.51v23.59h52.97v43.54h-52.97
			v136.43h-49.71V189.29h-37.37v-43.54h37.37v-26.49c0-19.35,5.32-34.29,15.97-44.81c10.64-10.52,25.88-15.78,45.72-15.78h41v43.9
			H1598.93z"/>
		<path class="st1" d="M1770.47,145.75h49.71v179.97H1777l-6.53-27.94h-1.45c-3.14,9.68-9.68,17.48-19.59,23.41
			c-9.92,5.92-21.53,8.89-34.83,8.89c-19.59,0-35.38-6.22-47.35-18.69c-11.97-12.45-17.96-28.97-17.96-49.53V145.75h49.71v99.06
			c0,11.61,3.14,20.99,9.44,28.12c6.28,7.14,14.63,10.7,25.03,10.7c11.12,0,20.08-3.75,26.85-11.25
			c6.77-7.49,10.16-17.42,10.16-29.75V145.75z"/>
		<path class="st1" d="M1943.9,325.72h-31.93c-19.59,0-34.78-5.26-45.54-15.78c-10.77-10.52-16.15-25.46-16.15-44.81V58.67H1900
			v203.55c0,5.32,1.51,9.44,4.54,12.34c3.02,2.9,7.31,4.35,12.88,4.35h26.48V325.72z"/>
		<path class="st1" d="M2049.12,325.72h-31.93c-19.59,0-34.78-5.26-45.54-15.78c-10.77-10.52-16.15-25.46-16.15-44.81V58.67h49.71
			v203.55c0,5.32,1.51,9.44,4.54,12.34c3.02,2.9,7.31,4.35,12.88,4.35h26.48V325.72z"/>
	</g>
	<g>
		<g>
			<path class="st1" d="M315.97,192.96c0-29.25-23.8-53.04-53.04-53.04c-29.25,0-53.04,23.8-53.04,53.04
				c0,29.25,23.8,53.04,53.04,53.04C292.17,246,315.97,222.21,315.97,192.96z"/>
			<path class="st1" d="M521.92,200.74h-22.46h-0.41h-7.45c-0.59,0-1.18,0.01-1.77,0.03h-86.77c-15.9,0-30.83,7.04-40.91,19.27
				l-99.24,118.3l-99.2-118.25c-10.12-12.28-25.05-19.32-40.95-19.32H36.01c-0.59-0.02-1.18-0.03-1.77-0.03l-7.86,0.03v-0.03H3.5
				c-1.93,0-3.5,1.57-3.5,3.5v8.72c0,1.93,1.57,3.5,3.5,3.5h22.88v0.03h9.34c10.73,0.42,20.68,5.39,27.5,13.78l115.23,137.31
				l0.08,0.09c1.14,1.32,2.37,2.6,3.64,3.81c9.89,9.37,22.85,14.53,36.47,14.53h88.55v0c0,0,0,0,0,0c13.63,0,26.58-5.16,36.47-14.53
				c1.28-1.21,2.5-2.49,3.65-3.82l115.23-137.31l0.08-0.09c6.82-8.39,16.77-13.36,27.5-13.78l9.34-0.03h22.46
				c1.94,0,3.52-1.57,3.52-3.52v-8.69C525.44,202.31,523.86,200.74,521.92,200.74z M450.47,220.29L335.39,357.42
				c-0.8,0.92-1.65,1.8-2.53,2.64c-6.96,6.59-16.07,10.22-25.66,10.22c-1.31,0-2.61-0.08-3.9-0.22c-0.39-0.04-0.78-0.11-1.16-0.17
				c-0.9-0.12-1.79-0.26-2.67-0.45c-0.44-0.09-0.88-0.21-1.32-0.32c-0.82-0.21-1.63-0.43-2.43-0.69c-0.44-0.14-0.88-0.29-1.31-0.45
				c-0.79-0.29-1.56-0.61-2.33-0.95c-0.41-0.18-0.83-0.36-1.23-0.56c-0.79-0.39-1.57-0.82-2.33-1.26c-0.34-0.2-0.7-0.39-1.04-0.6
				c-0.96-0.6-1.88-1.24-2.79-1.93c-0.12-0.1-0.26-0.18-0.38-0.27c-1.02-0.8-2-1.65-2.94-2.55c-0.26-0.25-0.47-0.5-0.72-0.75
				c-0.77-0.78-1.53-1.57-2.24-2.43l-5.2-6.15l101.05-120.46c7.13-8.64,17.63-13.6,28.82-13.6h50.82
				C452.7,217.69,451.56,218.96,450.47,220.29z"/>
			<path class="st1" d="M521.95,169.55h-22.49v-0.03h-9.34c-10.73-0.42-20.68-5.39-27.5-13.78L347.39,18.43l-0.08-0.09
				c-1.14-1.32-2.37-2.6-3.64-3.81C333.78,5.16,320.83,0,307.2,0h-88.55l0,0c0,0,0,0,0,0c-13.63,0-26.58,5.16-36.48,14.53
				c-1.28,1.22-2.5,2.5-3.64,3.81L63.3,155.65l-0.08,0.09c-6.82,8.39-16.77,13.36-27.5,13.78l-9.34,0.03H3.51
				c-1.94,0-3.51,1.57-3.51,3.51v8.71c0,1.94,1.57,3.5,3.51,3.5h22.88h7.86c0.59,0,1.18-0.01,1.77-0.03h86.77
				c15.9,0,30.82-7.04,40.9-19.27l99.24-118.3l99.2,118.25c10.12,12.28,25.05,19.32,40.95,19.32h86.77
				c0.59,0.02,1.18,0.03,1.77,0.03l7.45-0.03v0.03h22.9c1.92,0,3.49-1.56,3.49-3.49v-8.74
				C525.44,171.11,523.88,169.55,521.95,169.55z M151.6,155.92c-7.13,8.65-17.63,13.6-28.82,13.6H71.96
				c1.19-1.21,2.34-2.48,3.42-3.81L190.46,28.58c0.79-0.91,1.64-1.8,2.53-2.64c6.96-6.59,16.07-10.22,25.66-10.22
				c1.31,0,2.61,0.08,3.9,0.21c0.39,0.04,0.77,0.11,1.16,0.17c0.9,0.12,1.79,0.26,2.68,0.45c0.44,0.09,0.88,0.21,1.32,0.32
				c0.82,0.21,1.63,0.43,2.43,0.69c0.44,0.14,0.88,0.29,1.31,0.45c0.79,0.29,1.56,0.61,2.33,0.95c0.41,0.18,0.83,0.36,1.23,0.56
				c0.79,0.39,1.57,0.82,2.33,1.26c0.35,0.2,0.7,0.39,1.04,0.6c0.95,0.59,1.87,1.23,2.76,1.91c0.13,0.1,0.27,0.18,0.4,0.28
				c1.02,0.79,1.99,1.65,2.93,2.55c0.27,0.25,0.49,0.51,0.74,0.77c0.76,0.78,1.52,1.56,2.22,2.41l5.2,6.16L151.6,155.92z"/>
		</g>
	</g>
</g>
</svg>
